<mxfile host="65bd71144e" pages="2">
    <diagram id="h0GTq7bsjPbtoGNd5LG4" name="Page-1">
        <mxGraphModel dx="692" dy="203" grid="1" gridSize="10" guides="1" tooltips="1" connect="1" arrows="1" fold="1" page="1" pageScale="1" pageWidth="827" pageHeight="1169" math="0" shadow="0">
            <root>
                <mxCell id="0"/>
                <mxCell id="1" parent="0"/>
                <mxCell id="u0Fwz17ZR2Wc-u3anjdL-3" value="&lt;b&gt;USERS&lt;/b&gt; Table 1: {&lt;br&gt;user_id: INT -AUTO_INCREMENT PRIMARY KEY,&lt;br&gt;name: VARCHAR(100) NOT NULL&lt;br&gt;email: TEXT (255)&amp;nbsp; NOT NULL UNIQUE,&lt;br&gt;password: VARCHAR NOT NULL&lt;br&gt;}" style="rounded=1;whiteSpace=wrap;html=1;" parent="1" vertex="1">
                    <mxGeometry x="40" y="200" width="400" height="110" as="geometry"/>
                </mxCell>
                <mxCell id="u0Fwz17ZR2Wc-u3anjdL-4" value="&lt;b&gt;PHOTOS&lt;/b&gt; Table 2: {&lt;br&gt;user_id: (TAKEN FROM TABLE 1),&lt;br&gt;photo_url: TEXT (link to S3 database),&lt;br&gt;caption: TEXT (255),&lt;br&gt;photo_id: INT -AUTO_INCREMENT PRIMARY KEY,&lt;br&gt;likes: INT - AUT__INCREMENT" style="rounded=1;whiteSpace=wrap;html=1;" parent="1" vertex="1">
                    <mxGeometry x="450" y="200" width="350" height="110" as="geometry"/>
                </mxCell>
                <mxCell id="u0Fwz17ZR2Wc-u3anjdL-5" value="&lt;h1&gt;&lt;u&gt;Pet Photo Share and Like&lt;/u&gt;&lt;/h1&gt;" style="text;html=1;strokeColor=none;fillColor=none;spacing=5;spacingTop=-20;whiteSpace=wrap;overflow=hidden;rounded=0;fontSize=12;align=center;" parent="1" vertex="1">
                    <mxGeometry x="50" y="30" width="760" height="50" as="geometry"/>
                </mxCell>
                <mxCell id="u0Fwz17ZR2Wc-u3anjdL-6" value="&lt;b&gt;&lt;font style=&quot;font-size: 18px&quot;&gt;Database Plan:&lt;/font&gt;&lt;/b&gt;" style="text;html=1;strokeColor=none;fillColor=none;align=left;verticalAlign=bottom;whiteSpace=wrap;rounded=0;fontSize=12;" parent="1" vertex="1">
                    <mxGeometry x="40" y="130" width="240" height="30" as="geometry"/>
                </mxCell>
                <mxCell id="u0Fwz17ZR2Wc-u3anjdL-7" value="&lt;b&gt;&lt;font style=&quot;font-size: 18px&quot;&gt;Page Layout:&lt;/font&gt;&lt;/b&gt;" style="text;html=1;strokeColor=none;fillColor=none;align=left;verticalAlign=middle;whiteSpace=wrap;rounded=0;fontSize=17;" parent="1" vertex="1">
                    <mxGeometry x="40" y="370" width="300" height="30" as="geometry"/>
                </mxCell>
                <mxCell id="MBR7Db2OkPqNd-hiVWU--1" value="Sign-Up / Log - In" style="rounded=1;whiteSpace=wrap;html=1;" parent="1" vertex="1">
                    <mxGeometry x="40" y="440" width="750" height="210" as="geometry"/>
                </mxCell>
                <mxCell id="MBR7Db2OkPqNd-hiVWU--2" value="Page 1: sign-Up/Login:" style="text;html=1;strokeColor=none;fillColor=none;align=left;verticalAlign=middle;whiteSpace=wrap;rounded=0;" parent="1" vertex="1">
                    <mxGeometry x="40" y="410" width="170" height="30" as="geometry"/>
                </mxCell>
                <mxCell id="MBR7Db2OkPqNd-hiVWU--3" value="Page 2: Sign-Up Page" style="text;html=1;strokeColor=none;fillColor=none;align=left;verticalAlign=middle;whiteSpace=wrap;rounded=0;" parent="1" vertex="1">
                    <mxGeometry x="40" y="690" width="170" height="30" as="geometry"/>
                </mxCell>
                <mxCell id="MBR7Db2OkPqNd-hiVWU--4" value="" style="rounded=1;whiteSpace=wrap;html=1;" parent="1" vertex="1">
                    <mxGeometry x="40" y="720" width="740" height="350" as="geometry"/>
                </mxCell>
                <mxCell id="MBR7Db2OkPqNd-hiVWU--5" value="HEADING" style="rounded=0;whiteSpace=wrap;html=1;" parent="1" vertex="1">
                    <mxGeometry x="80" y="460" width="640" height="50" as="geometry"/>
                </mxCell>
                <mxCell id="MBR7Db2OkPqNd-hiVWU--6" value="HEADING" style="rounded=0;whiteSpace=wrap;html=1;" parent="1" vertex="1">
                    <mxGeometry x="80" y="750" width="640" height="50" as="geometry"/>
                </mxCell>
                <mxCell id="MBR7Db2OkPqNd-hiVWU--7" value="" style="rounded=0;whiteSpace=wrap;html=1;" parent="1" vertex="1">
                    <mxGeometry x="344" y="820" width="140" height="30" as="geometry"/>
                </mxCell>
                <mxCell id="MBR7Db2OkPqNd-hiVWU--8" value="" style="rounded=0;whiteSpace=wrap;html=1;" parent="1" vertex="1">
                    <mxGeometry x="345" y="860" width="140" height="30" as="geometry"/>
                </mxCell>
                <mxCell id="MBR7Db2OkPqNd-hiVWU--9" value="" style="rounded=0;whiteSpace=wrap;html=1;" parent="1" vertex="1">
                    <mxGeometry x="344" y="900" width="140" height="30" as="geometry"/>
                </mxCell>
                <mxCell id="MBR7Db2OkPqNd-hiVWU--10" value="" style="rounded=0;whiteSpace=wrap;html=1;" parent="1" vertex="1">
                    <mxGeometry x="344" y="940" width="140" height="30" as="geometry"/>
                </mxCell>
                <mxCell id="MBR7Db2OkPqNd-hiVWU--13" value="Copyright etc footer" style="text;html=1;strokeColor=none;fillColor=none;align=center;verticalAlign=middle;whiteSpace=wrap;rounded=0;" parent="1" vertex="1">
                    <mxGeometry x="330" y="610" width="170" height="30" as="geometry"/>
                </mxCell>
                <mxCell id="MBR7Db2OkPqNd-hiVWU--14" value="Copyright etc footer" style="text;html=1;strokeColor=none;fillColor=none;align=center;verticalAlign=middle;whiteSpace=wrap;rounded=0;" parent="1" vertex="1">
                    <mxGeometry x="329" y="1020" width="170" height="30" as="geometry"/>
                </mxCell>
                <mxCell id="MBR7Db2OkPqNd-hiVWU--15" value="name" style="text;html=1;strokeColor=none;fillColor=none;align=center;verticalAlign=middle;whiteSpace=wrap;rounded=0;" parent="1" vertex="1">
                    <mxGeometry x="260" y="830" width="60" height="30" as="geometry"/>
                </mxCell>
                <mxCell id="MBR7Db2OkPqNd-hiVWU--17" value="email" style="text;html=1;strokeColor=none;fillColor=none;align=center;verticalAlign=middle;whiteSpace=wrap;rounded=0;" parent="1" vertex="1">
                    <mxGeometry x="260" y="860" width="60" height="30" as="geometry"/>
                </mxCell>
                <mxCell id="MBR7Db2OkPqNd-hiVWU--18" value="password" style="text;html=1;strokeColor=none;fillColor=none;align=center;verticalAlign=middle;whiteSpace=wrap;rounded=0;" parent="1" vertex="1">
                    <mxGeometry x="260" y="900" width="60" height="30" as="geometry"/>
                </mxCell>
                <mxCell id="MBR7Db2OkPqNd-hiVWU--19" value="confirm password" style="text;html=1;strokeColor=none;fillColor=none;align=center;verticalAlign=middle;whiteSpace=wrap;rounded=0;" parent="1" vertex="1">
                    <mxGeometry x="260" y="940" width="60" height="30" as="geometry"/>
                </mxCell>
                <mxCell id="2hEgFItj--CGJYqw41Pa-1" value="SUBMIT" style="rounded=0;whiteSpace=wrap;html=1;" parent="1" vertex="1">
                    <mxGeometry x="500" y="940" width="90" height="30" as="geometry"/>
                </mxCell>
            </root>
        </mxGraphModel>
    </diagram>
    <diagram id="_1MgJ-CD4rp9dytDGwyX" name="Page-2">
        <mxGraphModel dx="692" dy="1372" grid="1" gridSize="10" guides="1" tooltips="1" connect="1" arrows="1" fold="1" page="1" pageScale="1" pageWidth="827" pageHeight="1169" math="0" shadow="0">
            <root>
                <mxCell id="PwKRg_g8Q1Xf0gc2sAMo-0"/>
                <mxCell id="PwKRg_g8Q1Xf0gc2sAMo-1" parent="PwKRg_g8Q1Xf0gc2sAMo-0"/>
                <mxCell id="01Lu89OoFLKVx5WPm9Ev-0" value="Page 3: Log-In Page:" style="text;html=1;strokeColor=none;fillColor=none;align=left;verticalAlign=middle;whiteSpace=wrap;rounded=0;" parent="PwKRg_g8Q1Xf0gc2sAMo-1" vertex="1">
                    <mxGeometry x="40" y="-1150" width="170" height="30" as="geometry"/>
                </mxCell>
                <mxCell id="oAsobapZf4WBme_9VOkN-0" value="&lt;span style=&quot;color: rgba(0 , 0 , 0 , 0) ; font-family: monospace ; font-size: 0px&quot;&gt;%3CmxGraphModel%3E%3Croot%3E%3CmxCell%20id%3D%220%22%2F%3E%3CmxCell%20id%3D%221%22%20parent%3D%220%22%2F%3E%3CmxCell%20id%3D%222%22%20value%3D%22HEADING%22%20style%3D%22rounded%3D0%3BwhiteSpace%3Dwrap%3Bhtml%3D1%3B%22%20vertex%3D%221%22%20parent%3D%221%22%3E%3CmxGeometry%20x%3D%2290%22%20y%3D%22760%22%20width%3D%22640%22%20height%3D%2250%22%20as%3D%22geometry%22%2F%3E%3C%2FmxCell%3E%3C%2Froot%3E%3C%2FmxGraphModel%3E&lt;/span&gt;" style="rounded=1;whiteSpace=wrap;html=1;" parent="PwKRg_g8Q1Xf0gc2sAMo-1" vertex="1">
                    <mxGeometry x="40" y="-1090" width="760" height="270" as="geometry"/>
                </mxCell>
                <mxCell id="ecbARx-yw1_jqrLeHz2k-0" value="HEADING" style="rounded=0;whiteSpace=wrap;html=1;" parent="PwKRg_g8Q1Xf0gc2sAMo-1" vertex="1">
                    <mxGeometry x="94" y="-1070" width="640" height="50" as="geometry"/>
                </mxCell>
                <mxCell id="ecbARx-yw1_jqrLeHz2k-1" value="" style="rounded=0;whiteSpace=wrap;html=1;" parent="PwKRg_g8Q1Xf0gc2sAMo-1" vertex="1">
                    <mxGeometry x="354" y="-990" width="120" height="30" as="geometry"/>
                </mxCell>
                <mxCell id="ecbARx-yw1_jqrLeHz2k-2" value="" style="rounded=0;whiteSpace=wrap;html=1;" parent="PwKRg_g8Q1Xf0gc2sAMo-1" vertex="1">
                    <mxGeometry x="354" y="-950" width="120" height="30" as="geometry"/>
                </mxCell>
                <mxCell id="ecbARx-yw1_jqrLeHz2k-3" value="email&lt;span style=&quot;color: rgba(0 , 0 , 0 , 0) ; font-family: monospace ; font-size: 0px&quot;&gt;%3CmxGraphModel%3E%3Croot%3E%3CmxCell%20id%3D%220%22%2F%3E%3CmxCell%20id%3D%221%22%20parent%3D%220%22%2F%3E%3CmxCell%20id%3D%222%22%20value%3D%22%22%20style%3D%22rounded%3D0%3BwhiteSpace%3Dwrap%3Bhtml%3D1%3B%22%20vertex%3D%221%22%20parent%3D%221%22%3E%3CmxGeometry%20x%3D%22354%22%20y%3D%22-990%22%20width%3D%22120%22%20height%3D%2230%22%20as%3D%22geometry%22%2F%3E%3C%2FmxCell%3E%3C%2Froot%3E%3C%2FmxGraphModel%3E&lt;/span&gt;" style="text;html=1;strokeColor=none;fillColor=none;align=center;verticalAlign=middle;whiteSpace=wrap;rounded=0;" parent="PwKRg_g8Q1Xf0gc2sAMo-1" vertex="1">
                    <mxGeometry x="280" y="-980" width="60" height="30" as="geometry"/>
                </mxCell>
                <mxCell id="ecbARx-yw1_jqrLeHz2k-4" value="password" style="text;html=1;strokeColor=none;fillColor=none;align=center;verticalAlign=middle;whiteSpace=wrap;rounded=0;" parent="PwKRg_g8Q1Xf0gc2sAMo-1" vertex="1">
                    <mxGeometry x="280" y="-950" width="60" height="30" as="geometry"/>
                </mxCell>
                <mxCell id="ecbARx-yw1_jqrLeHz2k-5" value="OK" style="rounded=0;whiteSpace=wrap;html=1;" parent="PwKRg_g8Q1Xf0gc2sAMo-1" vertex="1">
                    <mxGeometry x="490" y="-945" width="50" height="25" as="geometry"/>
                </mxCell>
                <mxCell id="nbASbm4VTpyE_fd-IMdr-0" value="Copyright etc footer" style="text;html=1;strokeColor=none;fillColor=none;align=center;verticalAlign=middle;whiteSpace=wrap;rounded=0;" parent="PwKRg_g8Q1Xf0gc2sAMo-1" vertex="1">
                    <mxGeometry x="360" y="-870" width="130" height="30" as="geometry"/>
                </mxCell>
                <mxCell id="nbASbm4VTpyE_fd-IMdr-1" value="Page 4:&amp;nbsp; Main- Display" style="text;html=1;strokeColor=none;fillColor=none;align=left;verticalAlign=middle;whiteSpace=wrap;rounded=0;" parent="PwKRg_g8Q1Xf0gc2sAMo-1" vertex="1">
                    <mxGeometry x="40" y="-790" width="170" height="30" as="geometry"/>
                </mxCell>
                <mxCell id="nbASbm4VTpyE_fd-IMdr-2" value="" style="rounded=1;whiteSpace=wrap;html=1;" parent="PwKRg_g8Q1Xf0gc2sAMo-1" vertex="1">
                    <mxGeometry x="45" y="-750" width="760" height="420" as="geometry"/>
                </mxCell>
                <mxCell id="nbASbm4VTpyE_fd-IMdr-3" value="HEADING" style="rounded=0;whiteSpace=wrap;html=1;" parent="PwKRg_g8Q1Xf0gc2sAMo-1" vertex="1">
                    <mxGeometry x="87" y="-730" width="680" height="40" as="geometry"/>
                </mxCell>
                <mxCell id="nbASbm4VTpyE_fd-IMdr-4" value="ADD-PHOTO" style="text;html=1;strokeColor=none;fillColor=none;align=center;verticalAlign=middle;whiteSpace=wrap;rounded=0;" parent="PwKRg_g8Q1Xf0gc2sAMo-1" vertex="1">
                    <mxGeometry x="70" y="-680" width="100" height="29" as="geometry"/>
                </mxCell>
                <mxCell id="nbASbm4VTpyE_fd-IMdr-5" value="LOGOUT" style="text;html=1;strokeColor=none;fillColor=none;align=center;verticalAlign=middle;whiteSpace=wrap;rounded=0;" parent="PwKRg_g8Q1Xf0gc2sAMo-1" vertex="1">
                    <mxGeometry x="474" y="-680" width="60" height="30" as="geometry"/>
                </mxCell>
                <mxCell id="nbASbm4VTpyE_fd-IMdr-6" value="VIEW MOST-POPULAR" style="text;html=1;strokeColor=none;fillColor=none;align=center;verticalAlign=middle;whiteSpace=wrap;rounded=0;" parent="PwKRg_g8Q1Xf0gc2sAMo-1" vertex="1">
                    <mxGeometry x="160" y="-680" width="160" height="30" as="geometry"/>
                </mxCell>
                <mxCell id="nbASbm4VTpyE_fd-IMdr-7" value="LOGGED IN AS: name" style="text;html=1;strokeColor=none;fillColor=none;align=center;verticalAlign=middle;whiteSpace=wrap;rounded=0;" parent="PwKRg_g8Q1Xf0gc2sAMo-1" vertex="1">
                    <mxGeometry x="310" y="-680" width="170" height="30" as="geometry"/>
                </mxCell>
                <mxCell id="nbASbm4VTpyE_fd-IMdr-8" value="PHOTO" style="rounded=1;whiteSpace=wrap;html=1;" parent="PwKRg_g8Q1Xf0gc2sAMo-1" vertex="1">
                    <mxGeometry x="80" y="-640" width="120" height="90" as="geometry"/>
                </mxCell>
                <mxCell id="nbASbm4VTpyE_fd-IMdr-9" value="PHOTO" style="rounded=1;whiteSpace=wrap;html=1;" parent="PwKRg_g8Q1Xf0gc2sAMo-1" vertex="1">
                    <mxGeometry x="310" y="-640" width="120" height="90" as="geometry"/>
                </mxCell>
                <mxCell id="nbASbm4VTpyE_fd-IMdr-10" value="PHOTO" style="rounded=1;whiteSpace=wrap;html=1;" parent="PwKRg_g8Q1Xf0gc2sAMo-1" vertex="1">
                    <mxGeometry x="534" y="-640" width="120" height="90" as="geometry"/>
                </mxCell>
                <mxCell id="nbASbm4VTpyE_fd-IMdr-12" value="PHOTO" style="rounded=1;whiteSpace=wrap;html=1;" parent="PwKRg_g8Q1Xf0gc2sAMo-1" vertex="1">
                    <mxGeometry x="534" y="-500" width="120" height="90" as="geometry"/>
                </mxCell>
                <mxCell id="nbASbm4VTpyE_fd-IMdr-13" value="PHOTO" style="rounded=1;whiteSpace=wrap;html=1;" parent="PwKRg_g8Q1Xf0gc2sAMo-1" vertex="1">
                    <mxGeometry x="310" y="-500" width="120" height="90" as="geometry"/>
                </mxCell>
                <mxCell id="nbASbm4VTpyE_fd-IMdr-14" value="PHOTO" style="rounded=1;whiteSpace=wrap;html=1;" parent="PwKRg_g8Q1Xf0gc2sAMo-1" vertex="1">
                    <mxGeometry x="80" y="-510" width="120" height="90" as="geometry"/>
                </mxCell>
                <mxCell id="nbASbm4VTpyE_fd-IMdr-15" value="EDIT / DELETE" style="rounded=0;whiteSpace=wrap;html=1;" parent="PwKRg_g8Q1Xf0gc2sAMo-1" vertex="1">
                    <mxGeometry x="210" y="-590" width="90" height="30" as="geometry"/>
                </mxCell>
                <mxCell id="nbASbm4VTpyE_fd-IMdr-16" value="LIKE&lt;span style=&quot;color: rgba(0 , 0 , 0 , 0) ; font-family: monospace ; font-size: 0px&quot;&gt;%3CmxGraphModel%3E%3Croot%3E%3CmxCell%20id%3D%220%22%2F%3E%3CmxCell%20id%3D%221%22%20parent%3D%220%22%2F%3E%3CmxCell%20id%3D%222%22%20value%3D%22PHOTO%22%20style%3D%22rounded%3D1%3BwhiteSpace%3Dwrap%3Bhtml%3D1%3B%22%20vertex%3D%221%22%20parent%3D%221%22%3E%3CmxGeometry%20x%3D%2280%22%20y%3D%22-640%22%20width%3D%22120%22%20height%3D%2290%22%20as%3D%22geometry%22%2F%3E%3C%2FmxCell%3E%3C%2Froot%3E%3C%2FmxGraphModel%3E&lt;/span&gt;" style="rounded=0;whiteSpace=wrap;html=1;" parent="PwKRg_g8Q1Xf0gc2sAMo-1" vertex="1">
                    <mxGeometry x="210" y="-625" width="60" height="25" as="geometry"/>
                </mxCell>
                <mxCell id="nbASbm4VTpyE_fd-IMdr-17" value="LIKE&lt;span style=&quot;color: rgba(0 , 0 , 0 , 0) ; font-family: monospace ; font-size: 0px&quot;&gt;%3CmxGraphModel%3E%3Croot%3E%3CmxCell%20id%3D%220%22%2F%3E%3CmxCell%20id%3D%221%22%20parent%3D%220%22%2F%3E%3CmxCell%20id%3D%222%22%20value%3D%22PHOTO%22%20style%3D%22rounded%3D1%3BwhiteSpace%3Dwrap%3Bhtml%3D1%3B%22%20vertex%3D%221%22%20parent%3D%221%22%3E%3CmxGeometry%20x%3D%2280%22%20y%3D%22-640%22%20width%3D%22120%22%20height%3D%2290%22%20as%3D%22geometry%22%2F%3E%3C%2FmxCell%3E%3C%2Froot%3E%3C%2FmxGraphModel%3E&lt;/span&gt;" style="rounded=0;whiteSpace=wrap;html=1;" parent="PwKRg_g8Q1Xf0gc2sAMo-1" vertex="1">
                    <mxGeometry x="670" y="-490" width="60" height="25" as="geometry"/>
                </mxCell>
                <mxCell id="nbASbm4VTpyE_fd-IMdr-18" value="LIKE&lt;span style=&quot;color: rgba(0 , 0 , 0 , 0) ; font-family: monospace ; font-size: 0px&quot;&gt;%3CmxGraphModel%3E%3Croot%3E%3CmxCell%20id%3D%220%22%2F%3E%3CmxCell%20id%3D%221%22%20parent%3D%220%22%2F%3E%3CmxCell%20id%3D%222%22%20value%3D%22PHOTO%22%20style%3D%22rounded%3D1%3BwhiteSpace%3Dwrap%3Bhtml%3D1%3B%22%20vertex%3D%221%22%20parent%3D%221%22%3E%3CmxGeometry%20x%3D%2280%22%20y%3D%22-640%22%20width%3D%22120%22%20height%3D%2290%22%20as%3D%22geometry%22%2F%3E%3C%2FmxCell%3E%3C%2Froot%3E%3C%2FmxGraphModel%3E&lt;/span&gt;" style="rounded=0;whiteSpace=wrap;html=1;" parent="PwKRg_g8Q1Xf0gc2sAMo-1" vertex="1">
                    <mxGeometry x="440" y="-500" width="60" height="25" as="geometry"/>
                </mxCell>
                <mxCell id="nbASbm4VTpyE_fd-IMdr-19" value="LIKE&lt;span style=&quot;color: rgba(0 , 0 , 0 , 0) ; font-family: monospace ; font-size: 0px&quot;&gt;%3CmxGraphModel%3E%3Croot%3E%3CmxCell%20id%3D%220%22%2F%3E%3CmxCell%20id%3D%221%22%20parent%3D%220%22%2F%3E%3CmxCell%20id%3D%222%22%20value%3D%22PHOTO%22%20style%3D%22rounded%3D1%3BwhiteSpace%3Dwrap%3Bhtml%3D1%3B%22%20vertex%3D%221%22%20parent%3D%221%22%3E%3CmxGeometry%20x%3D%2280%22%20y%3D%22-640%22%20width%3D%22120%22%20height%3D%2290%22%20as%3D%22geometry%22%2F%3E%3C%2FmxCell%3E%3C%2Froot%3E%3C%2FmxGraphModel%3E&lt;/span&gt;" style="rounded=0;whiteSpace=wrap;html=1;" parent="PwKRg_g8Q1Xf0gc2sAMo-1" vertex="1">
                    <mxGeometry x="670" y="-630" width="60" height="25" as="geometry"/>
                </mxCell>
                <mxCell id="nbASbm4VTpyE_fd-IMdr-20" value="LIKE&lt;span style=&quot;color: rgba(0 , 0 , 0 , 0) ; font-family: monospace ; font-size: 0px&quot;&gt;%3CmxGraphModel%3E%3Croot%3E%3CmxCell%20id%3D%220%22%2F%3E%3CmxCell%20id%3D%221%22%20parent%3D%220%22%2F%3E%3CmxCell%20id%3D%222%22%20value%3D%22PHOTO%22%20style%3D%22rounded%3D1%3BwhiteSpace%3Dwrap%3Bhtml%3D1%3B%22%20vertex%3D%221%22%20parent%3D%221%22%3E%3CmxGeometry%20x%3D%2280%22%20y%3D%22-640%22%20width%3D%22120%22%20height%3D%2290%22%20as%3D%22geometry%22%2F%3E%3C%2FmxCell%3E%3C%2Froot%3E%3C%2FmxGraphModel%3E&lt;/span&gt;" style="rounded=0;whiteSpace=wrap;html=1;" parent="PwKRg_g8Q1Xf0gc2sAMo-1" vertex="1">
                    <mxGeometry x="440" y="-630" width="60" height="25" as="geometry"/>
                </mxCell>
                <mxCell id="nbASbm4VTpyE_fd-IMdr-21" value="LIKE&lt;span style=&quot;color: rgba(0 , 0 , 0 , 0) ; font-family: monospace ; font-size: 0px&quot;&gt;%3CmxGraphModel%3E%3Croot%3E%3CmxCell%20id%3D%220%22%2F%3E%3CmxCell%20id%3D%221%22%20parent%3D%220%22%2F%3E%3CmxCell%20id%3D%222%22%20value%3D%22PHOTO%22%20style%3D%22rounded%3D1%3BwhiteSpace%3Dwrap%3Bhtml%3D1%3B%22%20vertex%3D%221%22%20parent%3D%221%22%3E%3CmxGeometry%20x%3D%2280%22%20y%3D%22-640%22%20width%3D%22120%22%20height%3D%2290%22%20as%3D%22geometry%22%2F%3E%3C%2FmxCell%3E%3C%2Froot%3E%3C%2FmxGraphModel%3E&lt;/span&gt;" style="rounded=0;whiteSpace=wrap;html=1;" parent="PwKRg_g8Q1Xf0gc2sAMo-1" vertex="1">
                    <mxGeometry x="210" y="-510" width="60" height="25" as="geometry"/>
                </mxCell>
                <mxCell id="nbASbm4VTpyE_fd-IMdr-24" value="EDIT / DELETE" style="rounded=0;whiteSpace=wrap;html=1;" parent="PwKRg_g8Q1Xf0gc2sAMo-1" vertex="1">
                    <mxGeometry x="440" y="-590" width="90" height="30" as="geometry"/>
                </mxCell>
                <mxCell id="nbASbm4VTpyE_fd-IMdr-25" value="EDIT / DELETE" style="rounded=0;whiteSpace=wrap;html=1;" parent="PwKRg_g8Q1Xf0gc2sAMo-1" vertex="1">
                    <mxGeometry x="670" y="-590" width="90" height="30" as="geometry"/>
                </mxCell>
                <mxCell id="nbASbm4VTpyE_fd-IMdr-28" value="EDIT / DELETE" style="rounded=0;whiteSpace=wrap;html=1;" parent="PwKRg_g8Q1Xf0gc2sAMo-1" vertex="1">
                    <mxGeometry x="210" y="-460" width="90" height="30" as="geometry"/>
                </mxCell>
                <mxCell id="nbASbm4VTpyE_fd-IMdr-29" value="EDIT / DELETE" style="rounded=0;whiteSpace=wrap;html=1;" parent="PwKRg_g8Q1Xf0gc2sAMo-1" vertex="1">
                    <mxGeometry x="440" y="-450" width="90" height="30" as="geometry"/>
                </mxCell>
                <mxCell id="nbASbm4VTpyE_fd-IMdr-30" value="EDIT / DELETE" style="rounded=0;whiteSpace=wrap;html=1;" parent="PwKRg_g8Q1Xf0gc2sAMo-1" vertex="1">
                    <mxGeometry x="670" y="-450" width="90" height="30" as="geometry"/>
                </mxCell>
                <mxCell id="nbASbm4VTpyE_fd-IMdr-31" value="copyright etc footer" style="text;html=1;strokeColor=none;fillColor=none;align=center;verticalAlign=middle;whiteSpace=wrap;rounded=0;" parent="PwKRg_g8Q1Xf0gc2sAMo-1" vertex="1">
                    <mxGeometry x="357" y="-380" width="126" height="30" as="geometry"/>
                </mxCell>
                <mxCell id="nbASbm4VTpyE_fd-IMdr-32" style="edgeStyle=orthogonalEdgeStyle;rounded=0;orthogonalLoop=1;jettySize=auto;html=1;exitX=0.5;exitY=1;exitDx=0;exitDy=0;" parent="PwKRg_g8Q1Xf0gc2sAMo-1" source="nbASbm4VTpyE_fd-IMdr-2" target="nbASbm4VTpyE_fd-IMdr-2" edge="1">
                    <mxGeometry relative="1" as="geometry"/>
                </mxCell>
                <mxCell id="nbASbm4VTpyE_fd-IMdr-33" value="Page 5: Edit / Delete" style="text;html=1;strokeColor=none;fillColor=none;align=left;verticalAlign=middle;whiteSpace=wrap;rounded=0;" parent="PwKRg_g8Q1Xf0gc2sAMo-1" vertex="1">
                    <mxGeometry x="40" y="-310" width="170" height="30" as="geometry"/>
                </mxCell>
                <mxCell id="nbASbm4VTpyE_fd-IMdr-34" value="" style="rounded=1;whiteSpace=wrap;html=1;" parent="PwKRg_g8Q1Xf0gc2sAMo-1" vertex="1">
                    <mxGeometry x="40" y="-270" width="760" height="320" as="geometry"/>
                </mxCell>
                <mxCell id="nbASbm4VTpyE_fd-IMdr-35" value="HEADING" style="rounded=0;whiteSpace=wrap;html=1;" parent="PwKRg_g8Q1Xf0gc2sAMo-1" vertex="1">
                    <mxGeometry x="70" y="-240" width="700" height="50" as="geometry"/>
                </mxCell>
                <mxCell id="tn3ZQPhN5xswhAfy3kxV-0" value="- caption" style="text;html=1;strokeColor=none;fillColor=none;align=center;verticalAlign=middle;whiteSpace=wrap;rounded=0;" parent="PwKRg_g8Q1Xf0gc2sAMo-1" vertex="1">
                    <mxGeometry x="80" y="-550" width="60" height="30" as="geometry"/>
                </mxCell>
                <mxCell id="tn3ZQPhN5xswhAfy3kxV-1" value="- caption" style="text;html=1;strokeColor=none;fillColor=none;align=center;verticalAlign=middle;whiteSpace=wrap;rounded=0;" parent="PwKRg_g8Q1Xf0gc2sAMo-1" vertex="1">
                    <mxGeometry x="540" y="-410" width="60" height="30" as="geometry"/>
                </mxCell>
                <mxCell id="tn3ZQPhN5xswhAfy3kxV-2" value="- caption" style="text;html=1;strokeColor=none;fillColor=none;align=center;verticalAlign=middle;whiteSpace=wrap;rounded=0;" parent="PwKRg_g8Q1Xf0gc2sAMo-1" vertex="1">
                    <mxGeometry x="310" y="-410" width="60" height="30" as="geometry"/>
                </mxCell>
                <mxCell id="tn3ZQPhN5xswhAfy3kxV-3" value="- caption" style="text;html=1;strokeColor=none;fillColor=none;align=center;verticalAlign=middle;whiteSpace=wrap;rounded=0;" parent="PwKRg_g8Q1Xf0gc2sAMo-1" vertex="1">
                    <mxGeometry x="80" y="-420" width="60" height="30" as="geometry"/>
                </mxCell>
                <mxCell id="tn3ZQPhN5xswhAfy3kxV-4" value="- caption" style="text;html=1;strokeColor=none;fillColor=none;align=center;verticalAlign=middle;whiteSpace=wrap;rounded=0;" parent="PwKRg_g8Q1Xf0gc2sAMo-1" vertex="1">
                    <mxGeometry x="530" y="-555" width="60" height="30" as="geometry"/>
                </mxCell>
                <mxCell id="tn3ZQPhN5xswhAfy3kxV-5" value="- caption" style="text;html=1;strokeColor=none;fillColor=none;align=center;verticalAlign=middle;whiteSpace=wrap;rounded=0;" parent="PwKRg_g8Q1Xf0gc2sAMo-1" vertex="1">
                    <mxGeometry x="310" y="-550" width="60" height="30" as="geometry"/>
                </mxCell>
                <mxCell id="tn3ZQPhN5xswhAfy3kxV-6" value="PHOTO" style="rounded=1;whiteSpace=wrap;html=1;" parent="PwKRg_g8Q1Xf0gc2sAMo-1" vertex="1">
                    <mxGeometry x="70" y="-150" width="170" height="110" as="geometry"/>
                </mxCell>
                <mxCell id="tn3ZQPhN5xswhAfy3kxV-7" value="CAPTION: EDIT" style="rounded=0;whiteSpace=wrap;html=1;" parent="PwKRg_g8Q1Xf0gc2sAMo-1" vertex="1">
                    <mxGeometry x="270" y="-150" width="150" height="60" as="geometry"/>
                </mxCell>
                <mxCell id="tn3ZQPhN5xswhAfy3kxV-8" value="update" style="rounded=0;whiteSpace=wrap;html=1;" parent="PwKRg_g8Q1Xf0gc2sAMo-1" vertex="1">
                    <mxGeometry x="480" y="-150" width="65" height="30" as="geometry"/>
                </mxCell>
                <mxCell id="tn3ZQPhN5xswhAfy3kxV-9" value="delete" style="rounded=0;whiteSpace=wrap;html=1;" parent="PwKRg_g8Q1Xf0gc2sAMo-1" vertex="1">
                    <mxGeometry x="482.5" y="-110" width="57.5" height="30" as="geometry"/>
                </mxCell>
                <mxCell id="tn3ZQPhN5xswhAfy3kxV-10" value="LOGGED IN AS: name" style="text;html=1;strokeColor=none;fillColor=none;align=center;verticalAlign=middle;whiteSpace=wrap;rounded=0;" parent="PwKRg_g8Q1Xf0gc2sAMo-1" vertex="1">
                    <mxGeometry x="375" y="-189" width="170" height="30" as="geometry"/>
                </mxCell>
                <mxCell id="tn3ZQPhN5xswhAfy3kxV-11" value="LOGOUT" style="text;html=1;strokeColor=none;fillColor=none;align=center;verticalAlign=middle;whiteSpace=wrap;rounded=0;" parent="PwKRg_g8Q1Xf0gc2sAMo-1" vertex="1">
                    <mxGeometry x="560" y="-190" width="60" height="30" as="geometry"/>
                </mxCell>
                <mxCell id="tn3ZQPhN5xswhAfy3kxV-12" value="ADD-PHOTO" style="text;html=1;strokeColor=none;fillColor=none;align=center;verticalAlign=middle;whiteSpace=wrap;rounded=0;" parent="PwKRg_g8Q1Xf0gc2sAMo-1" vertex="1">
                    <mxGeometry x="120" y="-188" width="100" height="29" as="geometry"/>
                </mxCell>
                <mxCell id="tn3ZQPhN5xswhAfy3kxV-13" value="VIEW MOST-POPULAR" style="text;html=1;strokeColor=none;fillColor=none;align=center;verticalAlign=middle;whiteSpace=wrap;rounded=0;" parent="PwKRg_g8Q1Xf0gc2sAMo-1" vertex="1">
                    <mxGeometry x="220" y="-188" width="160" height="30" as="geometry"/>
                </mxCell>
                <mxCell id="tn3ZQPhN5xswhAfy3kxV-14" value="HOME" style="text;html=1;strokeColor=none;fillColor=none;align=center;verticalAlign=middle;whiteSpace=wrap;rounded=0;" parent="PwKRg_g8Q1Xf0gc2sAMo-1" vertex="1">
                    <mxGeometry x="60" y="-188" width="60" height="30" as="geometry"/>
                </mxCell>
                <mxCell id="tn3ZQPhN5xswhAfy3kxV-15" value="copyright etc footer" style="text;html=1;strokeColor=none;fillColor=none;align=center;verticalAlign=middle;whiteSpace=wrap;rounded=0;" parent="PwKRg_g8Q1Xf0gc2sAMo-1" vertex="1">
                    <mxGeometry x="364" width="126" height="30" as="geometry"/>
                </mxCell>
                <mxCell id="tn3ZQPhN5xswhAfy3kxV-16" value="" style="rounded=1;whiteSpace=wrap;html=1;" parent="PwKRg_g8Q1Xf0gc2sAMo-1" vertex="1">
                    <mxGeometry x="50" y="130" width="730" height="280" as="geometry"/>
                </mxCell>
                <mxCell id="tn3ZQPhN5xswhAfy3kxV-18" value="Page 5: Logout Confirmation" style="text;html=1;strokeColor=none;fillColor=none;align=left;verticalAlign=middle;whiteSpace=wrap;rounded=0;" parent="PwKRg_g8Q1Xf0gc2sAMo-1" vertex="1">
                    <mxGeometry x="40" y="90" width="170" height="30" as="geometry"/>
                </mxCell>
                <mxCell id="tn3ZQPhN5xswhAfy3kxV-19" value="HEADING" style="rounded=0;whiteSpace=wrap;html=1;" parent="PwKRg_g8Q1Xf0gc2sAMo-1" vertex="1">
                    <mxGeometry x="64" y="160" width="700" height="50" as="geometry"/>
                </mxCell>
                <mxCell id="tn3ZQPhN5xswhAfy3kxV-20" value="LOGOUT" style="rounded=0;whiteSpace=wrap;html=1;" parent="PwKRg_g8Q1Xf0gc2sAMo-1" vertex="1">
                    <mxGeometry x="340" y="290" width="130" height="40" as="geometry"/>
                </mxCell>
                <mxCell id="tn3ZQPhN5xswhAfy3kxV-21" value="Confirm Log-out" style="text;html=1;strokeColor=none;fillColor=none;align=center;verticalAlign=middle;whiteSpace=wrap;rounded=0;" parent="PwKRg_g8Q1Xf0gc2sAMo-1" vertex="1">
                    <mxGeometry x="330" y="250" width="120" height="30" as="geometry"/>
                </mxCell>
                <mxCell id="tn3ZQPhN5xswhAfy3kxV-22" value="LOGGED IN AS: name" style="text;html=1;strokeColor=none;fillColor=none;align=center;verticalAlign=middle;whiteSpace=wrap;rounded=0;" parent="PwKRg_g8Q1Xf0gc2sAMo-1" vertex="1">
                    <mxGeometry x="110" y="220" width="170" height="30" as="geometry"/>
                </mxCell>
                <mxCell id="tn3ZQPhN5xswhAfy3kxV-23" value="HOME" style="text;html=1;strokeColor=none;fillColor=none;align=center;verticalAlign=middle;whiteSpace=wrap;rounded=0;" parent="PwKRg_g8Q1Xf0gc2sAMo-1" vertex="1">
                    <mxGeometry x="64" y="220" width="60" height="30" as="geometry"/>
                </mxCell>
                <mxCell id="tn3ZQPhN5xswhAfy3kxV-24" value="copyright etc footer" style="text;html=1;strokeColor=none;fillColor=none;align=center;verticalAlign=middle;whiteSpace=wrap;rounded=0;" parent="PwKRg_g8Q1Xf0gc2sAMo-1" vertex="1">
                    <mxGeometry x="342" y="370" width="126" height="30" as="geometry"/>
                </mxCell>
            </root>
        </mxGraphModel>
    </diagram>
</mxfile>